<?xml version="1.0" encoding="UTF-8" standalone="no"?>
<!-- Created with Inkscape (http://www.inkscape.org/) -->

<svg
   xmlns:osb="http://www.openswatchbook.org/uri/2009/osb"
   xmlns:dc="http://purl.org/dc/elements/1.1/"
   xmlns:cc="http://creativecommons.org/ns#"
   xmlns:rdf="http://www.w3.org/1999/02/22-rdf-syntax-ns#"
   xmlns:svg="http://www.w3.org/2000/svg"
   xmlns="http://www.w3.org/2000/svg"
   xmlns:xlink="http://www.w3.org/1999/xlink"
   xmlns:sodipodi="http://sodipodi.sourceforge.net/DTD/sodipodi-0.dtd"
   xmlns:inkscape="http://www.inkscape.org/namespaces/inkscape"
   width="239.74222"
   height="112.1571"
   viewBox="0 0 63.431791 29.674899"
   version="1.1"
   id="svg8"
   inkscape:version="0.92.5 (2060ec1f9f, 2020-04-08)"
   sodipodi:docname="cupOfTeaLogoV2.svg"
   inkscape:export-filename="C:\Users\20pat\cupOfTeaLogo.png"
   inkscape:export-xdpi="96"
   inkscape:export-ydpi="96">
  <defs
     id="defs2">
    <linearGradient
       id="linearGradient1160"
       osb:paint="solid">
      <stop
         style="stop-color:#4d5159;stop-opacity:1;"
         offset="0"
         id="stop1158" />
    </linearGradient>
    <linearGradient
       id="linearGradient1154"
       osb:paint="solid">
      <stop
         style="stop-color:#8c5c03;stop-opacity:1;"
         offset="0"
         id="stop1152" />
    </linearGradient>
    <linearGradient
       id="linearGradient1148"
       osb:paint="solid">
      <stop
         style="stop-color:#618c03;stop-opacity:1;"
         offset="0"
         id="stop1146" />
    </linearGradient>
    <linearGradient
       id="linearGradient1142"
       osb:paint="solid">
      <stop
         style="stop-color:#365902;stop-opacity:1;"
         offset="0"
         id="stop1140" />
    </linearGradient>
    <clipPath
       clipPathUnits="userSpaceOnUse"
       id="clipPath917">
      <g
         inkscape:label="Clip"
         id="use919">
        <path
           inkscape:connector-curvature="0"
           id="path985"
           d="m 140.48334,119.34637 -60.993174,5.2e-4 v 4.55682 a 7.3961156,6.8249143 0 0 0 0.15658,0.74879 7.3961156,6.8249143 0 0 0 6.170681,4.9935 h 1.874306 a 7.3961156,6.8249143 0 0 0 0.329179,-0.0357 4.4206675,4.0792595 0 0 0 -0.04444,0.0357 h 44.053638 a 4.4206675,4.0792595 0 0 0 -0.0444,-0.0357 7.3961156,6.8249143 0 0 0 0.32866,0.0357 h 1.8743 a 7.3961156,6.8249143 0 0 0 6.17069,-4.9935 7.3961156,6.8249143 0 0 0 0.12402,-0.54311 z"
           style="fill:#808080;fill-opacity:1;fill-rule:evenodd;stroke:#000000;stroke-width:0.903;stroke-miterlimit:4;stroke-dasharray:none;stroke-opacity:1" />
        <rect
           y="128.48656"
           x="85.492836"
           height="0.66816711"
           width="49.010555"
           id="rect987"
           style="fill:#808080;fill-opacity:1;fill-rule:evenodd;stroke-width:0.79374963" />
      </g>
    </clipPath>
    <clipPath
       clipPathUnits="userSpaceOnUse"
       id="clipPath955">
      <g
         inkscape:label="Clip"
         id="use957">
        <path
           style="fill:#808080;fill-opacity:1;fill-rule:evenodd;stroke:#000000;stroke-width:1;stroke-miterlimit:4;stroke-dasharray:none;stroke-opacity:1"
           d="m 66.421617,128.87161 a 18.315555,5.0961955 75.924255 0 0 1.458825,15.92479 18.315555,5.0961955 75.924255 0 0 7.281728,15.61697 23.387762,7.2418986 75.960047 0 1 -0.0052,0.12958 h 27.98951 a 7.2418986,23.387762 14.039953 0 1 -0.004,-0.12958 5.0961955,18.315556 14.075745 0 0 7.28173,-15.61697 5.0961955,18.315556 14.075745 0 0 1.45883,-15.92479 z"
           id="path962"
           inkscape:connector-curvature="0" />
        <path
           sodipodi:nodetypes="ccccc"
           inkscape:connector-curvature="0"
           id="path964"
           d="m 75.653736,160.41337 27.470044,0.10374 c 6.77992,-6.67694 8.82812,-24.52843 8.82812,-24.52843 l -45.305158,-0.021 c 1.103031,9.3391 3.149791,18.49957 9.006994,24.44573 z"
           style="fill:#f4ae40;fill-opacity:1;stroke:#000000;stroke-width:0.31395587px;stroke-linecap:butt;stroke-linejoin:miter;stroke-opacity:1" />
      </g>
    </clipPath>
    <clipPath
       clipPathUnits="userSpaceOnUse"
       id="clipPath999">
      <g
         transform="translate(-1.0302091e-7,-2.328496e-6)"
         inkscape:label="Clip"
         id="use1001"
         style="stroke:#000000;stroke-width:2.24311137;stroke-miterlimit:4;stroke-dasharray:none;stroke-opacity:1">
        <path
           style="fill:#e0e2e5;fill-opacity:1;fill-rule:evenodd;stroke:#000000;stroke-width:2.24311137;stroke-miterlimit:4;stroke-dasharray:none;stroke-opacity:1"
           d="m 133.53433,99.835694 -60.993172,5.2e-4 v 4.556816 a 7.3961156,6.8249143 0 0 0 0.15658,0.74879 7.3961156,6.8249143 0 0 0 6.170681,4.9935 h 1.874306 a 7.3961156,6.8249143 0 0 0 0.329179,-0.0357 4.4206675,4.0792595 0 0 0 -0.04444,0.0357 H 125.0811 a 4.4206675,4.0792595 0 0 0 -0.0444,-0.0357 7.3961156,6.8249143 0 0 0 0.32866,0.0357 h 1.8743 a 7.3961156,6.8249143 0 0 0 6.17069,-4.9935 7.3961156,6.8249143 0 0 0 0.12402,-0.54311 z"
           id="path914"
           inkscape:connector-curvature="0" />
        <rect
           style="fill:#e0e2e5;fill-opacity:1;fill-rule:evenodd;stroke:#000000;stroke-width:2.24311137;stroke-miterlimit:4;stroke-dasharray:none;stroke-opacity:1"
           id="rect916"
           width="49.010555"
           height="0.66816711"
           x="78.543831"
           y="108.97588" />
      </g>
    </clipPath>
    <clipPath
       clipPathUnits="userSpaceOnUse"
       id="clipPath4832">
      <use
         x="0"
         y="0"
         xlink:href="#g4828"
         id="use4834"
         width="100%"
         height="100%" />
    </clipPath>
    <clipPath
       clipPathUnits="userSpaceOnUse"
       id="clipPath59">
      <g
         inkscape:label="Clip"
         id="use61">
        <path
           inkscape:connector-curvature="0"
           id="path74"
           d="m 49.754915,145.41979 a 18.315555,5.0961955 75.924255 0 0 1.458825,15.92479 18.315555,5.0961955 75.924255 0 0 7.281728,15.61697 23.387762,7.2418986 75.960047 0 1 -0.0052,0.12958 h 27.989509 a 7.2418986,23.387762 14.039953 0 1 -0.004,-0.12958 5.0961955,18.315556 14.075745 0 0 7.28173,-15.61697 5.0961955,18.315556 14.075745 0 0 1.45883,-15.92479 z"
           style="fill:#f4ae40;fill-opacity:1;fill-rule:evenodd;stroke:#000000;stroke-width:1.5;stroke-miterlimit:4;stroke-dasharray:none;stroke-opacity:1" />
        <path
           inkscape:connector-curvature="0"
           id="path76"
           d="m 50.359211,146.15203 -0.133633,5.85968 h 44.622819 l -0.21261,-5.87146 z"
           style="fill:#e0e2e5;fill-opacity:1;stroke:#000000;stroke-width:0.31467259px;stroke-linecap:butt;stroke-linejoin:miter;stroke-opacity:1" />
        <g
           transform="translate(-21.238199,22.630845)"
           clip-path="url(#clipPath4832)"
           id="g84">
          <g
             id="g82"
             inkscape:label="Clip">
            <path
               style="opacity:1;vector-effect:none;fill:#e0e2e5;fill-opacity:1;fill-rule:nonzero;stroke:none;stroke-width:1.53880763;stroke-linecap:butt;stroke-linejoin:round;stroke-miterlimit:4;stroke-dasharray:none;stroke-dashoffset:0;stroke-opacity:1;paint-order:normal"
               d="m 361.52276,570.54057 c -1.8298,-1.8298 -0.8122,-4.14485 4.5,-10.23752 2.94643,-3.37933 5.35714,-6.31812 5.35714,-6.53065 0,-1.20921 -7.4864,-9.55546 -8.40838,-9.37412 -0.59982,0.11797 -1.48989,1.65365 -1.98686,3.428 -0.49514,1.76786 -1.41908,5.0548 -2.0532,7.30431 -0.63412,2.24952 -1.71502,4.39085 -2.40201,4.75851 -1.4798,0.79197 -19.72776,-2.25213 -21.29436,-3.55229 -1.33192,-1.1054 -1.26673,-3.85409 0.1244,-5.24522 1.35777,-1.35777 0.5225,-1.35979 8.62231,0.0209 3.68908,0.62883 7.15221,0.97263 7.69586,0.76402 2.19874,-0.84374 2.00515,-5.63019 -0.65494,-16.19321 l -2.58253,-10.25507 -9.95872,-10.26957 c -5.47729,-5.64826 -9.95871,-10.83013 -9.95871,-11.51525 0,-1.5393 1.3494,-2.95996 2.8115,-2.95996 0.60346,0 5.13535,4.02919 10.07086,8.95374 l 8.97366,8.95374 4.60014,-1.07314 c 2.58242,-0.60244 5.00835,-1.6317 5.53082,-2.34659 13.88326,-18.9963 14.72946,-19.89508 16.97587,-18.03073 1.93387,1.60498 1.04938,3.57885 -5.74856,12.8287 -3.73215,5.07826 -6.78572,9.69867 -6.78572,10.26756 0,0.95055 3.15025,14.95072 3.98585,17.71369 0.19886,0.65754 2.75714,4.19326 5.68508,7.85714 2.92794,3.66388 5.32128,7.30446 5.31854,8.09018 -0.003,0.78571 -3.11875,5.04464 -6.92446,9.46428 -5.51631,6.40619 -7.29635,8.03572 -8.77796,8.03572 -1.02216,0 -2.24419,-0.38572 -2.71562,-0.85714 z"
               id="path78"
               inkscape:connector-curvature="0"
               transform="scale(0.26458333)" />
            <path
               style="opacity:1;vector-effect:none;fill:#e0e2e5;fill-opacity:1;fill-rule:nonzero;stroke:none;stroke-width:1.53880763;stroke-linecap:butt;stroke-linejoin:round;stroke-miterlimit:4;stroke-dasharray:none;stroke-dashoffset:0;stroke-opacity:1;paint-order:normal"
               d="m 348.89562,513.36199 c -1.1035,-0.95881 -2.01954,-2.67432 -2.27077,-4.25257 -0.36385,-2.28573 -0.12523,-2.94131 1.75488,-4.82143 4.22989,-4.22989 10.85732,-1.90755 10.85732,3.80455 0,3.45994 -0.58313,4.62923 -2.90823,5.83159 -2.86414,1.4811 -5.29305,1.29741 -7.4332,-0.56214 z"
               id="path80"
               inkscape:connector-curvature="0"
               transform="scale(0.26458333)" />
          </g>
        </g>
        <path
           inkscape:connector-curvature="0"
           id="path86"
           d="m 96.385147,145.20527 -0.33723,7.411 -0.17154,4.1396 -3.51122,10.50142 c 9.237263,-4.0847 14.204463,-6.11355 14.204463,-6.11355 l 2.04803,-2.81013 -0.72763,-9.97205 -3.40557,-3.59426 -2.48151,0.13416 z m 2.00433,4.48822 5.716243,-0.25425 0.87043,1.16702 0.30944,5.72254 -0.68579,0.75437 -7.268973,4.36607 0.8233,-8.65294 z"
           style="fill:#e0e2e5;fill-opacity:1;fill-rule:evenodd;stroke:#000000;stroke-width:1.07999992;stroke-miterlimit:4;stroke-dasharray:none;stroke-opacity:1" />
        <path
           inkscape:connector-curvature="0"
           d="m 75.901816,122.58897 c -0.436703,-0.0492 -0.899081,-0.1755 -1.340631,-0.10195 -0.100269,0.0167 -0.195646,0.0553 -0.29347,0.0829 -0.103079,0.0397 -0.210048,0.0705 -0.309235,0.11913 -0.103692,0.0508 -0.39801,0.23434 -0.297145,0.17811 0.677172,-0.3775 1.342302,-0.77681 2.026197,-1.142 0.118682,-0.0634 -0.22021,0.15471 -0.328009,0.2352 -0.353441,0.26394 -0.334073,0.25848 -0.666998,0.55006 -0.586402,0.55227 -1.118008,1.16275 -1.561637,1.83509 -0.374288,0.58463 -0.723305,1.18178 -0.947907,1.84035 -0.225494,0.67195 -0.05964,1.15384 0.256894,1.75388 0.35011,0.51306 0.765416,0.98174 1.209908,1.41479 0.529288,0.50196 1.087763,0.97 1.667055,1.41313 0.557347,0.44439 1.057786,0.94796 1.551503,1.46007 0.427874,0.44433 0.875689,0.86684 1.248725,1.35944 0.292645,0.51454 0.451289,1.08434 0.715598,1.61372 0.206562,0.49345 0.504457,0.95978 0.562565,1.50003 -0.133091,1.11739 -1.752095,1.29215 -2.594669,1.78307 -0.03959,0.0231 -0.16253,0.0846 -0.122838,0.0617 2.39268,-1.37941 2.938873,-1.75577 2.054043,-1.15681 -0.464878,0.34873 -0.858618,0.78085 -1.243859,1.21313 -0.330655,0.39623 -0.626962,0.81947 -0.934236,1.23371 -0.170291,0.25697 -0.352256,0.49846 -0.578284,0.70805 0,0 -2.5863,1.02722 -2.5863,1.02722 v 0 c 0.271156,-0.15789 0.474229,-0.36643 0.628873,-0.64334 0.31601,-0.41206 0.606422,-0.84249 0.924036,-1.25351 0.386479,-0.43597 0.776541,-0.86932 1.209201,-1.2599 0.922576,-0.75642 0.144809,-0.13353 2.711323,-1.61662 0.03983,-0.023 0.162819,-0.0855 0.123394,-0.0618 -0.753189,0.4529 -1.514811,0.89177 -2.265024,1.34958 -0.06323,0.0386 0.283078,-0.0875 0.188129,-0.11829 0.07559,-0.4984 -0.311591,-0.95313 -0.469897,-1.4021 -0.261572,-0.51242 -0.425468,-1.06243 -0.693507,-1.56978 -0.362889,-0.48429 -0.810961,-0.89342 -1.220338,-1.3376 -0.483544,-0.50198 -0.971725,-0.99964 -1.519822,-1.43256 -0.585057,-0.45601 -1.15633,-0.92902 -1.704726,-1.42864 -0.458949,-0.45711 -0.87878,-0.95643 -1.240301,-1.49423 -0.344964,-0.64675 -0.578464,-1.2043 -0.3663,-1.94502 0.211691,-0.68513 0.543716,-1.31078 0.936009,-1.91072 0.428268,-0.70188 0.961824,-1.32949 1.546376,-1.90732 1.213405,-1.15276 2.687383,-2.12345 4.283186,-2.63034 0.579712,-0.078 1.155221,-0.004 1.73269,0.0731 0,0 -2.290572,1.60708 -2.290572,1.60708 z"
           id="path88"
           style="opacity:1;vector-effect:none;fill:#000000;fill-opacity:1;fill-rule:nonzero;stroke:#000000;stroke-width:1.07999992;stroke-linecap:butt;stroke-linejoin:round;stroke-miterlimit:4;stroke-dasharray:none;stroke-dashoffset:0;stroke-opacity:1;paint-order:normal" />
        <path
           inkscape:connector-curvature="0"
           d="m 62.572476,126.21472 c -0.592804,0.0483 -1.171167,0.17936 -1.73642,0.36041 -0.833618,0.46381 -2.416464,1.20747 1.40848,-0.81148 0.116742,-0.0616 -0.213416,0.15577 -0.314616,0.24053 -0.2413,0.20209 -0.357786,0.33392 -0.57544,0.55867 -0.524658,0.54831 -1.015058,1.1278 -1.474102,1.73185 -0.368742,0.44731 -0.573836,0.94141 -0.589883,1.5193 0.136411,0.94521 0.633351,1.792 1.100995,2.60926 0.478342,0.80491 1.117507,1.47785 1.751102,2.15786 0.594114,0.55967 1.170683,1.13366 1.63567,1.80699 0.406786,0.63294 0.340622,1.29582 0.106204,1.97357 -0.216834,0.48114 -0.476655,0.94423 -0.84377,1.32611 -0.01791,0.0158 -0.260694,0.23175 -0.287311,0.24763 -0.838234,0.4999 -1.707166,0.94893 -2.529692,1.47427 -0.142271,0.0909 6.627659,-3.82898 -0.268139,0.16138 0,0 2.173216,-1.75637 2.173216,-1.75637 v 0 c -7.558942,4.3866 5.538629,-3.21377 -1.965063,1.14851 -0.110117,0.064 0.460275,-0.27912 0.304882,-0.23035 0.425053,-0.30821 0.665964,-0.76263 0.917416,-1.21405 0.271717,-0.60791 0.393745,-1.13968 0.03127,-1.74347 -0.450159,-0.66502 -1.020945,-1.22483 -1.592374,-1.7854 -0.646427,-0.69579 -1.29333,-1.38942 -1.770914,-2.21882 -0.487254,-0.85769 -0.985986,-1.73501 -1.207566,-2.70489 -0.04354,-0.66106 0.095,-1.15635 0.507558,-1.68192 0.454705,-0.62146 0.966195,-1.20016 1.483061,-1.7702 0.149302,-0.16218 0.400883,-0.44118 0.560837,-0.59175 1.018516,-0.95877 2.328847,-1.57946 3.608652,-2.12304 0.597789,-0.16799 1.208651,-0.29394 1.830068,-0.32958 0,0 -2.264125,1.64498 -2.264125,1.64498 z"
           id="path90"
           style="opacity:1;vector-effect:none;fill:#000000;fill-opacity:1;fill-rule:nonzero;stroke:#000000;stroke-width:1.07999992;stroke-linecap:butt;stroke-linejoin:round;stroke-miterlimit:4;stroke-dasharray:none;stroke-dashoffset:0;stroke-opacity:1;paint-order:normal" />
        <path
           inkscape:connector-curvature="0"
           d="m 92.092419,125.51531 c -0.552357,-0.0272 -1.10807,0.0396 -1.650815,0.1404 -0.61495,0.16006 -1.230503,0.2718 -1.786435,0.59013 3.831207,-2.16322 2.213415,-1.375 1.48888,-0.73877 -0.239808,0.21058 -0.430978,0.45212 -0.618136,0.70836 -0.326096,0.4736 -0.552561,0.99647 -0.691065,1.55226 -0.10613,0.54454 -0.108008,1.10168 -0.110543,1.65432 0.0063,0.5796 -0.03622,1.16031 0.0684,1.7328 0.1354,0.48958 0.218106,0.99476 0.390199,1.47299 0.237022,0.57001 0.581782,1.0831 0.828665,1.64827 0.202292,0.48209 0.202676,1.00713 0.250393,1.51871 0.106167,0.59312 0.365356,1.14477 0.583867,1.70266 0.260223,0.61398 -0.0031,1.11106 -0.392295,1.59184 -0.988372,1.11293 -2.341242,1.65075 -3.637915,2.38157 -0.192233,0.0631 -0.392488,0.0815 -0.592436,0.0999 0,0 2.229529,-1.66781 2.229529,-1.66781 v 0 c 0.185074,-0.0355 0.368721,-0.0731 0.538488,-0.15971 -0.729313,0.42488 -1.460566,0.84645 -2.187937,1.27465 -0.06717,0.0395 0.14047,-0.0681 0.207118,-0.10856 0.335267,-0.20333 0.639049,-0.47707 0.911466,-0.755 0.399214,-0.40053 0.696852,-0.73163 0.520025,-1.31874 -0.219392,-0.58208 -0.496239,-1.1487 -0.62712,-1.75937 -0.06276,-0.48425 -0.04179,-0.98414 -0.214704,-1.44903 -0.228222,-0.57771 -0.56987,-1.09514 -0.829445,-1.65837 -0.192593,-0.48876 -0.285671,-1.00582 -0.411078,-1.51497 -0.119936,-0.58826 -0.09327,-1.18319 -0.09341,-1.78111 0.0039,-0.56814 -0.0061,-1.14054 0.07999,-1.70365 0.112046,-0.58986 0.343485,-1.13928 0.65428,-1.65322 0.955231,-1.467 2.163451,-1.83178 3.801814,-2.78897 0.585859,-0.26 1.214382,-0.38653 1.838365,-0.52409 0.568822,-0.0814 1.140711,-0.1359 1.715976,-0.13249 0,0 -2.264124,1.64499 -2.264124,1.64499 z"
           id="path92"
           style="opacity:1;vector-effect:none;fill:#000000;fill-opacity:1;fill-rule:nonzero;stroke:#000000;stroke-width:1.07999992;stroke-linecap:butt;stroke-linejoin:round;stroke-miterlimit:4;stroke-dasharray:none;stroke-dashoffset:0;stroke-opacity:1;paint-order:normal" />
      </g>
    </clipPath>
    <clipPath
       clipPathUnits="userSpaceOnUse"
       id="clipPath928">
      <g
         inkscape:label="Clip"
         id="use930">
        <path
           inkscape:connector-curvature="0"
           id="path935"
           d="m 91.60709,178.41294 -45.165786,2.9e-4 v 2.54662 a 5.476865,3.8141683 0 0 0 0.115949,0.41847 5.476865,3.8141683 0 0 0 4.569424,2.79066 h 1.387934 a 5.476865,3.8141683 0 0 0 0.243759,-0.0199 3.273529,2.279733 0 0 0 -0.03291,0.0199 h 32.621964 a 3.273529,2.279733 0 0 0 -0.03288,-0.0199 5.476865,3.8141683 0 0 0 0.243375,0.0199 h 1.387929 a 5.476865,3.8141683 0 0 0 4.569431,-2.79066 5.476865,3.8141683 0 0 0 0.09184,-0.30353 z"
           style="fill:#e0e2e5;fill-opacity:1;fill-rule:evenodd;stroke:#000000;stroke-width:1.44300008;stroke-miterlimit:4;stroke-dasharray:none;stroke-opacity:1" />
        <rect
           y="183.52103"
           x="50.886318"
           height="0.37341157"
           width="36.292591"
           id="rect937"
           style="fill:#e0e2e5;fill-opacity:1;fill-rule:evenodd;stroke:none;stroke-width:1.44300008;stroke-miterlimit:4;stroke-dasharray:none;stroke-opacity:1" />
      </g>
    </clipPath>
    <clipPath
       clipPathUnits="userSpaceOnUse"
       id="clipPath949">
      <use
         x="0"
         y="0"
         xlink:href="#g945"
         id="use951"
         width="100%"
         height="100%"
         transform="matrix(3.2450396,0,0,3.2450396,-30.515142,-397.82154)" />
    </clipPath>
    <clipPath
       clipPathUnits="userSpaceOnUse"
       id="clipPath4832-9">
      <g
         id="use4834-1"
         inkscape:label="Clip">
        <path
           style="opacity:1;vector-effect:none;fill:#e0e2e5;fill-opacity:1;fill-rule:nonzero;stroke:none;stroke-width:1.53880763;stroke-linecap:butt;stroke-linejoin:round;stroke-miterlimit:4;stroke-dasharray:none;stroke-dashoffset:0;stroke-opacity:1;paint-order:normal"
           d="m 361.52276,570.54057 c -1.8298,-1.8298 -0.8122,-4.14485 4.5,-10.23752 2.94643,-3.37933 5.35714,-6.31812 5.35714,-6.53065 0,-1.20921 -7.4864,-9.55546 -8.40838,-9.37412 -0.59982,0.11797 -1.48989,1.65365 -1.98686,3.428 -0.49514,1.76786 -1.41908,5.0548 -2.0532,7.30431 -0.63412,2.24952 -1.71502,4.39085 -2.40201,4.75851 -1.4798,0.79197 -19.72776,-2.25213 -21.29436,-3.55229 -1.33192,-1.1054 -1.26673,-3.85409 0.1244,-5.24522 1.35777,-1.35777 0.5225,-1.35979 8.62231,0.0209 3.68908,0.62883 7.15221,0.97263 7.69586,0.76402 2.19874,-0.84374 2.00515,-5.63019 -0.65494,-16.19321 l -2.58253,-10.25507 -9.95872,-10.26957 c -5.47729,-5.64826 -9.95871,-10.83013 -9.95871,-11.51525 0,-1.5393 1.3494,-2.95996 2.8115,-2.95996 0.60346,0 5.13535,4.02919 10.07086,8.95374 l 8.97366,8.95374 4.60014,-1.07314 c 2.58242,-0.60244 5.00835,-1.6317 5.53082,-2.34659 13.88326,-18.9963 14.72946,-19.89508 16.97587,-18.03073 1.93387,1.60498 1.04938,3.57885 -5.74856,12.8287 -3.73215,5.07826 -6.78572,9.69867 -6.78572,10.26756 0,0.95055 3.15025,14.95072 3.98585,17.71369 0.19886,0.65754 2.75714,4.19326 5.68508,7.85714 2.92794,3.66388 5.32128,7.30446 5.31854,8.09018 -0.003,0.78571 -3.11875,5.04464 -6.92446,9.46428 -5.51631,6.40619 -7.29635,8.03572 -8.77796,8.03572 -1.02216,0 -2.24419,-0.38572 -2.71562,-0.85714 z"
           id="path248"
           inkscape:connector-curvature="0"
           transform="scale(0.26458333)" />
        <path
           style="opacity:1;vector-effect:none;fill:#e0e2e5;fill-opacity:1;fill-rule:nonzero;stroke:none;stroke-width:1.53880763;stroke-linecap:butt;stroke-linejoin:round;stroke-miterlimit:4;stroke-dasharray:none;stroke-dashoffset:0;stroke-opacity:1;paint-order:normal"
           d="m 348.89562,513.36199 c -1.1035,-0.95881 -2.01954,-2.67432 -2.27077,-4.25257 -0.36385,-2.28573 -0.12523,-2.94131 1.75488,-4.82143 4.22989,-4.22989 10.85732,-1.90755 10.85732,3.80455 0,3.45994 -0.58313,4.62923 -2.90823,5.83159 -2.86414,1.4811 -5.29305,1.29741 -7.4332,-0.56214 z"
           id="path250"
           inkscape:connector-curvature="0"
           transform="scale(0.26458333)" />
      </g>
    </clipPath>
    <clipPath
       clipPathUnits="userSpaceOnUse"
       id="clipPath949-1">
      <g
         inkscape:label="Clip"
         id="use951-6">
        <path
           style="fill:#e0e2e5;fill-opacity:1;fill-rule:evenodd;stroke:#000000;stroke-width:1.44300008;stroke-miterlimit:4;stroke-dasharray:none;stroke-opacity:1"
           d="m 91.60709,178.41294 -45.165786,2.9e-4 v 2.54662 a 5.476865,3.8141683 0 0 0 0.115949,0.41847 5.476865,3.8141683 0 0 0 4.569424,2.79066 h 1.387934 a 5.476865,3.8141683 0 0 0 0.243759,-0.0199 3.273529,2.279733 0 0 0 -0.03291,0.0199 h 32.621964 a 3.273529,2.279733 0 0 0 -0.03288,-0.0199 5.476865,3.8141683 0 0 0 0.243375,0.0199 h 1.387929 a 5.476865,3.8141683 0 0 0 4.569431,-2.79066 5.476865,3.8141683 0 0 0 0.09184,-0.30353 z"
           id="path242"
           inkscape:connector-curvature="0" />
        <rect
           style="fill:#e0e2e5;fill-opacity:1;fill-rule:evenodd;stroke:none;stroke-width:1.44300008;stroke-miterlimit:4;stroke-dasharray:none;stroke-opacity:1"
           id="rect244"
           width="36.292591"
           height="0.37341157"
           x="50.886318"
           y="181.93355" />
      </g>
    </clipPath>
    <clipPath
       clipPathUnits="userSpaceOnUse"
       id="clipPath1059">
      <g
         id="use1061"
         inkscape:label="Clip">
        <g
           transform="translate(65.340528,57.083635)"
           id="g218"
           clip-path="url(#clipPath949-1)">
          <g
             inkscape:label="Clip"
             id="g216">
            <path
               style="fill:#e0e2e5;fill-opacity:1;fill-rule:evenodd;stroke:#000000;stroke-width:1.44300008;stroke-miterlimit:4;stroke-dasharray:none;stroke-opacity:1"
               d="m 91.60709,178.41294 -45.165786,2.9e-4 v 2.54662 a 5.476865,3.8141683 0 0 0 0.115949,0.41847 5.476865,3.8141683 0 0 0 4.569424,2.79066 h 1.387934 a 5.476865,3.8141683 0 0 0 0.243759,-0.0199 3.273529,2.279733 0 0 0 -0.03291,0.0199 h 32.621964 a 3.273529,2.279733 0 0 0 -0.03288,-0.0199 5.476865,3.8141683 0 0 0 0.243375,0.0199 h 1.387929 a 5.476865,3.8141683 0 0 0 4.569431,-2.79066 5.476865,3.8141683 0 0 0 0.09184,-0.30353 z"
               id="path212"
               inkscape:connector-curvature="0" />
            <rect
               style="fill:#e0e2e5;fill-opacity:1;fill-rule:evenodd;stroke:none;stroke-width:1.44300008;stroke-miterlimit:4;stroke-dasharray:none;stroke-opacity:1"
               id="rect214"
               width="36.292591"
               height="0.37341157"
               x="50.886318"
               y="181.93355" />
          </g>
        </g>
        <path
           inkscape:connector-curvature="0"
           id="path220"
           d="m 111.93077,202.50342 a 18.315555,5.0961957 75.924255 0 0 1.45882,15.9248 18.315555,5.0961957 75.924255 0 0 7.28173,15.61696 23.387762,7.2418988 75.960047 0 1 -0.005,0.12959 h 27.98951 a 7.2418988,23.387762 14.039953 0 1 -0.004,-0.12959 5.0961957,18.315556 14.075745 0 0 7.28173,-15.61696 5.0961957,18.315556 14.075745 0 0 1.45883,-15.9248 z"
           style="fill:#f4ae40;fill-opacity:1;fill-rule:evenodd;stroke:#000000;stroke-width:1.5;stroke-miterlimit:4;stroke-dasharray:none;stroke-opacity:1" />
        <path
           inkscape:connector-curvature="0"
           id="path222"
           d="m 112.53506,203.23567 -0.13363,5.85968 h 44.62282 l -0.21261,-5.87146 z"
           style="fill:#e0e2e5;fill-opacity:1;stroke:#000000;stroke-width:0.31467259px;stroke-linecap:butt;stroke-linejoin:miter;stroke-opacity:1" />
        <g
           transform="translate(40.937652,79.714475)"
           clip-path="url(#clipPath4832-9)"
           id="g230">
          <g
             id="g228"
             inkscape:label="Clip">
            <path
               style="opacity:1;vector-effect:none;fill:#e0e2e5;fill-opacity:1;fill-rule:nonzero;stroke:none;stroke-width:1.53880763;stroke-linecap:butt;stroke-linejoin:round;stroke-miterlimit:4;stroke-dasharray:none;stroke-dashoffset:0;stroke-opacity:1;paint-order:normal"
               d="m 361.52276,570.54057 c -1.8298,-1.8298 -0.8122,-4.14485 4.5,-10.23752 2.94643,-3.37933 5.35714,-6.31812 5.35714,-6.53065 0,-1.20921 -7.4864,-9.55546 -8.40838,-9.37412 -0.59982,0.11797 -1.48989,1.65365 -1.98686,3.428 -0.49514,1.76786 -1.41908,5.0548 -2.0532,7.30431 -0.63412,2.24952 -1.71502,4.39085 -2.40201,4.75851 -1.4798,0.79197 -19.72776,-2.25213 -21.29436,-3.55229 -1.33192,-1.1054 -1.26673,-3.85409 0.1244,-5.24522 1.35777,-1.35777 0.5225,-1.35979 8.62231,0.0209 3.68908,0.62883 7.15221,0.97263 7.69586,0.76402 2.19874,-0.84374 2.00515,-5.63019 -0.65494,-16.19321 l -2.58253,-10.25507 -9.95872,-10.26957 c -5.47729,-5.64826 -9.95871,-10.83013 -9.95871,-11.51525 0,-1.5393 1.3494,-2.95996 2.8115,-2.95996 0.60346,0 5.13535,4.02919 10.07086,8.95374 l 8.97366,8.95374 4.60014,-1.07314 c 2.58242,-0.60244 5.00835,-1.6317 5.53082,-2.34659 13.88326,-18.9963 14.72946,-19.89508 16.97587,-18.03073 1.93387,1.60498 1.04938,3.57885 -5.74856,12.8287 -3.73215,5.07826 -6.78572,9.69867 -6.78572,10.26756 0,0.95055 3.15025,14.95072 3.98585,17.71369 0.19886,0.65754 2.75714,4.19326 5.68508,7.85714 2.92794,3.66388 5.32128,7.30446 5.31854,8.09018 -0.003,0.78571 -3.11875,5.04464 -6.92446,9.46428 -5.51631,6.40619 -7.29635,8.03572 -8.77796,8.03572 -1.02216,0 -2.24419,-0.38572 -2.71562,-0.85714 z"
               id="path224"
               inkscape:connector-curvature="0"
               transform="scale(0.26458333)" />
            <path
               style="opacity:1;vector-effect:none;fill:#e0e2e5;fill-opacity:1;fill-rule:nonzero;stroke:none;stroke-width:1.53880763;stroke-linecap:butt;stroke-linejoin:round;stroke-miterlimit:4;stroke-dasharray:none;stroke-dashoffset:0;stroke-opacity:1;paint-order:normal"
               d="m 348.89562,513.36199 c -1.1035,-0.95881 -2.01954,-2.67432 -2.27077,-4.25257 -0.36385,-2.28573 -0.12523,-2.94131 1.75488,-4.82143 4.22989,-4.22989 10.85732,-1.90755 10.85732,3.80455 0,3.45994 -0.58313,4.62923 -2.90823,5.83159 -2.86414,1.4811 -5.29305,1.29741 -7.4332,-0.56214 z"
               id="path226"
               inkscape:connector-curvature="0"
               transform="scale(0.26458333)" />
          </g>
        </g>
        <path
           inkscape:connector-curvature="0"
           id="path232"
           d="m 158.561,202.2889 -0.33723,7.41101 -0.17154,4.1396 -3.51122,10.50142 c 9.23726,-4.0847 14.20446,-6.11355 14.20446,-6.11355 l 2.04803,-2.81014 -0.72763,-9.97205 -3.40557,-3.59426 -2.48151,0.13417 z m 2.00433,4.48823 5.71624,-0.25426 0.87043,1.16703 0.30944,5.72254 -0.68579,0.75437 -7.26897,4.36606 0.8233,-8.65293 z"
           style="fill:#e0e2e5;fill-opacity:1;fill-rule:evenodd;stroke:#000000;stroke-width:1.07999992;stroke-miterlimit:4;stroke-dasharray:none;stroke-opacity:1" />
        <path
           inkscape:connector-curvature="0"
           d="m 138.07767,179.6726 c -0.4367,-0.0492 -0.89908,-0.1755 -1.34063,-0.10195 -0.10027,0.0167 -0.19565,0.0553 -0.29347,0.0829 -0.10308,0.0397 -0.21005,0.0705 -0.30924,0.11913 -0.10369,0.0508 -0.39801,0.23434 -0.29714,0.17811 0.67717,-0.3775 1.3423,-0.77681 2.0262,-1.142 0.11868,-0.0634 -0.22021,0.15471 -0.32801,0.2352 -0.35345,0.26394 -0.33408,0.25848 -0.667,0.55006 -0.58641,0.55227 -1.11801,1.16275 -1.56164,1.8351 -0.37429,0.58462 -0.72331,1.18178 -0.94791,1.84034 -0.22549,0.67196 -0.0596,1.15384 0.2569,1.75388 0.35011,0.51306 0.76541,0.98174 1.2099,1.4148 0.52929,0.50196 1.08777,0.97 1.66706,1.41312 0.55735,0.44439 1.05779,0.94796 1.5515,1.46007 0.42788,0.44433 0.87569,0.86684 1.24873,1.35944 0.29264,0.51454 0.45129,1.08435 0.7156,1.61372 0.20656,0.49345 0.50445,0.95978 0.56256,1.50004 -0.13309,1.11738 -1.75209,1.29214 -2.59467,1.78306 -0.0396,0.0231 -0.16253,0.0846 -0.12283,0.0617 2.39268,-1.3794 2.93887,-1.75576 2.05404,-1.15681 -0.46488,0.34873 -0.85862,0.78086 -1.24386,1.21313 -0.33066,0.39623 -0.62696,0.81947 -0.93424,1.23372 -0.17029,0.25696 -0.35225,0.49845 -0.57828,0.70804 0,0 -2.5863,1.02723 -2.5863,1.02723 v 0 c 0.27115,-0.1579 0.47423,-0.36644 0.62887,-0.64335 0.31601,-0.41206 0.60642,-0.84249 0.92404,-1.2535 0.38648,-0.43598 0.77654,-0.86933 1.2092,-1.25991 0.92257,-0.75641 0.14481,-0.13352 2.71132,-1.61662 0.0398,-0.023 0.16282,-0.0855 0.1234,-0.0618 -0.75319,0.4529 -1.51482,0.89177 -2.26503,1.34958 -0.0632,0.0386 0.28308,-0.0875 0.18813,-0.11828 0.0756,-0.49841 -0.31159,-0.95313 -0.4699,-1.40211 -0.26157,-0.51241 -0.42546,-1.06242 -0.6935,-1.56978 -0.36289,-0.48429 -0.81097,-0.89342 -1.22034,-1.3376 -0.48355,-0.50198 -0.97173,-0.99964 -1.51982,-1.43256 -0.58506,-0.45601 -1.15633,-0.92902 -1.70473,-1.42864 -0.45895,-0.45711 -0.87878,-0.95643 -1.2403,-1.49423 -0.34497,-0.64674 -0.57846,-1.2043 -0.3663,-1.94502 0.21169,-0.68512 0.54372,-1.31078 0.93601,-1.91072 0.42827,-0.70187 0.96182,-1.32949 1.54637,-1.90732 1.21341,-1.15276 2.68739,-2.12345 4.28319,-2.63034 0.57971,-0.078 1.15522,-0.004 1.73269,0.0731 0,0 -2.29057,1.60708 -2.29057,1.60708 z"
           id="path234"
           style="opacity:1;vector-effect:none;fill:#000000;fill-opacity:1;fill-rule:nonzero;stroke:#000000;stroke-width:1.07999992;stroke-linecap:butt;stroke-linejoin:round;stroke-miterlimit:4;stroke-dasharray:none;stroke-dashoffset:0;stroke-opacity:1;paint-order:normal" />
        <path
           inkscape:connector-curvature="0"
           d="m 124.74833,183.29835 c -0.59281,0.0483 -1.17117,0.17936 -1.73642,0.36041 -0.83362,0.46381 -2.41647,1.20747 1.40848,-0.81148 0.11674,-0.0616 -0.21342,0.15577 -0.31462,0.24053 -0.2413,0.20209 -0.35778,0.33392 -0.57544,0.55867 -0.52466,0.54831 -1.01506,1.1278 -1.4741,1.73185 -0.36874,0.44731 -0.57384,0.94141 -0.58988,1.5193 0.13641,0.94521 0.63335,1.792 1.10099,2.60926 0.47834,0.80491 1.11751,1.47785 1.7511,2.15786 0.59412,0.55967 1.17069,1.13366 1.63567,1.807 0.40679,0.63293 0.34063,1.29581 0.10621,1.97356 -0.21684,0.48114 -0.47666,0.94423 -0.84377,1.32611 -0.0179,0.0158 -0.2607,0.23176 -0.28731,0.24764 -0.83824,0.4999 -1.70717,0.94893 -2.5297,1.47427 -0.14227,0.0909 6.62766,-3.82899 -0.26813,0.16137 0,0 2.17321,-1.75637 2.17321,-1.75637 v 0 c -7.55894,4.38661 5.53863,-3.21377 -1.96506,1.14851 -0.11012,0.064 0.46027,-0.27911 0.30488,-0.23035 0.42505,-0.30821 0.66596,-0.76263 0.91742,-1.21404 0.27171,-0.60792 0.39374,-1.13968 0.0313,-1.74347 -0.45016,-0.66503 -1.02095,-1.22484 -1.59238,-1.78541 -0.64642,-0.69579 -1.29333,-1.38942 -1.77091,-2.21882 -0.48726,-0.85769 -0.98599,-1.73501 -1.20757,-2.70489 -0.0435,-0.66106 0.095,-1.15634 0.50756,-1.68192 0.45471,-0.62146 0.9662,-1.20016 1.48306,-1.7702 0.1493,-0.16218 0.40088,-0.44118 0.56084,-0.59175 1.01851,-0.95877 2.32885,-1.57946 3.60865,-2.12304 0.59779,-0.16799 1.20865,-0.29394 1.83007,-0.32958 0,0 -2.26413,1.64498 -2.26413,1.64498 z"
           id="path236"
           style="opacity:1;vector-effect:none;fill:#000000;fill-opacity:1;fill-rule:nonzero;stroke:#000000;stroke-width:1.07999992;stroke-linecap:butt;stroke-linejoin:round;stroke-miterlimit:4;stroke-dasharray:none;stroke-dashoffset:0;stroke-opacity:1;paint-order:normal" />
        <path
           inkscape:connector-curvature="0"
           d="m 154.26827,182.59894 c -0.55236,-0.0272 -1.10807,0.0396 -1.65081,0.1404 -0.61495,0.16006 -1.23051,0.2718 -1.78644,0.59013 3.83121,-2.16322 2.21342,-1.375 1.48888,-0.73877 -0.23981,0.21058 -0.43098,0.45212 -0.61813,0.70836 -0.3261,0.4736 -0.55257,0.99647 -0.69107,1.55226 -0.10613,0.54454 -0.10801,1.10168 -0.11054,1.65432 0.006,0.5796 -0.0362,1.16031 0.0684,1.7328 0.1354,0.48958 0.2181,0.99476 0.3902,1.47299 0.23702,0.57001 0.58178,1.0831 0.82866,1.64827 0.20229,0.48209 0.20268,1.00713 0.2504,1.51872 0.10616,0.59311 0.36535,1.14476 0.58386,1.70265 0.26022,0.61398 -0.003,1.11106 -0.39229,1.59184 -0.98838,1.11293 -2.34125,1.65075 -3.63792,2.38158 -0.19223,0.0631 -0.39249,0.0815 -0.59243,0.0999 0,0 2.22953,-1.66781 2.22953,-1.66781 v 0 c 0.18507,-0.0355 0.36872,-0.0731 0.53848,-0.15972 -0.72931,0.42488 -1.46056,0.84645 -2.18793,1.27465 -0.0672,0.0395 0.14047,-0.0681 0.20711,-0.10855 0.33527,-0.20334 0.63905,-0.47708 0.91147,-0.75501 0.39921,-0.40053 0.69685,-0.73163 0.52003,-1.31874 -0.2194,-0.58207 -0.49624,-1.14869 -0.62713,-1.75936 -0.0628,-0.48426 -0.0418,-0.98415 -0.2147,-1.44904 -0.22822,-0.57771 -0.56987,-1.09514 -0.82944,-1.65837 -0.1926,-0.48876 -0.28568,-1.00582 -0.41108,-1.51497 -0.11994,-0.58826 -0.0933,-1.18319 -0.0934,-1.78111 0.004,-0.56814 -0.006,-1.14054 0.08,-1.70365 0.11204,-0.58986 0.34348,-1.13928 0.65428,-1.65322 0.95523,-1.467 2.16345,-1.83178 3.80181,-2.78897 0.58586,-0.26 1.21438,-0.38653 1.83837,-0.52409 0.56882,-0.0814 1.14071,-0.1359 1.71597,-0.13249 0,0 -2.26412,1.64499 -2.26412,1.64499 z"
           id="path238"
           style="opacity:1;vector-effect:none;fill:#000000;fill-opacity:1;fill-rule:nonzero;stroke:#000000;stroke-width:1.07999992;stroke-linecap:butt;stroke-linejoin:round;stroke-miterlimit:4;stroke-dasharray:none;stroke-dashoffset:0;stroke-opacity:1;paint-order:normal" />
      </g>
    </clipPath>
    <clipPath
       clipPathUnits="userSpaceOnUse"
       id="clipPath1111">
      <g
         inkscape:label="Clip"
         id="use1113">
        <g
           transform="matrix(0.30816265,0,0,0.30816265,39.263747,135.1025)"
           clip-path="url(#clipPath949)"
           id="g1136">
          <g
             id="g1134"
             inkscape:label="Clip">
            <path
               inkscape:connector-curvature="0"
               id="path1130"
               d="m 91.60709,178.41294 -45.165786,2.9e-4 v 2.54662 a 5.476865,3.8141683 0 0 0 0.115949,0.41847 5.476865,3.8141683 0 0 0 4.569424,2.79066 h 1.387934 a 5.476865,3.8141683 0 0 0 0.243759,-0.0199 3.273529,2.279733 0 0 0 -0.03291,0.0199 h 32.621964 a 3.273529,2.279733 0 0 0 -0.03288,-0.0199 5.476865,3.8141683 0 0 0 0.243375,0.0199 h 1.387929 a 5.476865,3.8141683 0 0 0 4.569431,-2.79066 5.476865,3.8141683 0 0 0 0.09184,-0.30353 z"
               style="fill:#e0e2e5;fill-opacity:1;fill-rule:evenodd;stroke:#000000;stroke-width:1.44300008;stroke-miterlimit:4;stroke-dasharray:none;stroke-opacity:1" />
            <rect
               y="181.93355"
               x="50.886318"
               height="0.37341157"
               width="36.292591"
               id="rect1132"
               style="fill:#e0e2e5;fill-opacity:1;fill-rule:evenodd;stroke:none;stroke-width:1.44300008;stroke-miterlimit:4;stroke-dasharray:none;stroke-opacity:1" />
          </g>
        </g>
        <path
           style="fill:#f4ae40;fill-opacity:1;fill-rule:evenodd;stroke:#000000;stroke-width:0.46224397;stroke-miterlimit:4;stroke-dasharray:none;stroke-opacity:1"
           d="m 53.621119,179.91545 a 5.6441699,1.5704571 75.924255 0 0 0.449555,4.90742 5.6441699,1.5704571 75.924255 0 0 2.243957,4.81257 7.2072346,2.2316826 75.960047 0 1 -0.0016,0.0399 h 8.625321 a 2.2316826,7.2072346 14.039953 0 1 -0.0012,-0.0399 1.5704571,5.6441702 14.075745 0 0 2.243957,-4.81257 1.5704571,5.6441702 14.075745 0 0 0.449557,-4.90742 z"
           id="path1138"
           inkscape:connector-curvature="0" />
        <path
           style="fill:#e0e2e5;fill-opacity:1;stroke:#000000;stroke-width:0.09697033px;stroke-linecap:butt;stroke-linejoin:miter;stroke-opacity:1"
           d="m 53.80734,180.14109 -0.04118,1.80574 h 13.751086 l -0.06552,-1.80937 z"
           id="path1140"
           inkscape:connector-curvature="0" />
        <g
           id="g1148"
           clip-path="url(#clipPath4832)"
           transform="matrix(0.30816265,0,0,0.30816265,31.743693,142.07648)">
          <g
             inkscape:label="Clip"
             id="g1146">
            <path
               transform="scale(0.26458333)"
               inkscape:connector-curvature="0"
               id="path1142"
               d="m 361.52276,570.54057 c -1.8298,-1.8298 -0.8122,-4.14485 4.5,-10.23752 2.94643,-3.37933 5.35714,-6.31812 5.35714,-6.53065 0,-1.20921 -7.4864,-9.55546 -8.40838,-9.37412 -0.59982,0.11797 -1.48989,1.65365 -1.98686,3.428 -0.49514,1.76786 -1.41908,5.0548 -2.0532,7.30431 -0.63412,2.24952 -1.71502,4.39085 -2.40201,4.75851 -1.4798,0.79197 -19.72776,-2.25213 -21.29436,-3.55229 -1.33192,-1.1054 -1.26673,-3.85409 0.1244,-5.24522 1.35777,-1.35777 0.5225,-1.35979 8.62231,0.0209 3.68908,0.62883 7.15221,0.97263 7.69586,0.76402 2.19874,-0.84374 2.00515,-5.63019 -0.65494,-16.19321 l -2.58253,-10.25507 -9.95872,-10.26957 c -5.47729,-5.64826 -9.95871,-10.83013 -9.95871,-11.51525 0,-1.5393 1.3494,-2.95996 2.8115,-2.95996 0.60346,0 5.13535,4.02919 10.07086,8.95374 l 8.97366,8.95374 4.60014,-1.07314 c 2.58242,-0.60244 5.00835,-1.6317 5.53082,-2.34659 13.88326,-18.9963 14.72946,-19.89508 16.97587,-18.03073 1.93387,1.60498 1.04938,3.57885 -5.74856,12.8287 -3.73215,5.07826 -6.78572,9.69867 -6.78572,10.26756 0,0.95055 3.15025,14.95072 3.98585,17.71369 0.19886,0.65754 2.75714,4.19326 5.68508,7.85714 2.92794,3.66388 5.32128,7.30446 5.31854,8.09018 -0.003,0.78571 -3.11875,5.04464 -6.92446,9.46428 -5.51631,6.40619 -7.29635,8.03572 -8.77796,8.03572 -1.02216,0 -2.24419,-0.38572 -2.71562,-0.85714 z"
               style="opacity:1;vector-effect:none;fill:#e0e2e5;fill-opacity:1;fill-rule:nonzero;stroke:none;stroke-width:1.53880763;stroke-linecap:butt;stroke-linejoin:round;stroke-miterlimit:4;stroke-dasharray:none;stroke-dashoffset:0;stroke-opacity:1;paint-order:normal" />
            <path
               transform="scale(0.26458333)"
               inkscape:connector-curvature="0"
               id="path1144"
               d="m 348.89562,513.36199 c -1.1035,-0.95881 -2.01954,-2.67432 -2.27077,-4.25257 -0.36385,-2.28573 -0.12523,-2.94131 1.75488,-4.82143 4.22989,-4.22989 10.85732,-1.90755 10.85732,3.80455 0,3.45994 -0.58313,4.62923 -2.90823,5.83159 -2.86414,1.4811 -5.29305,1.29741 -7.4332,-0.56214 z"
               style="opacity:1;vector-effect:none;fill:#e0e2e5;fill-opacity:1;fill-rule:nonzero;stroke:none;stroke-width:1.53880763;stroke-linecap:butt;stroke-linejoin:round;stroke-miterlimit:4;stroke-dasharray:none;stroke-dashoffset:0;stroke-opacity:1;paint-order:normal" />
          </g>
        </g>
        <path
           style="fill:#e0e2e5;fill-opacity:1;fill-rule:evenodd;stroke:#000000;stroke-width:0.33281565;stroke-miterlimit:4;stroke-dasharray:none;stroke-opacity:1"
           d="m 67.990815,179.84934 -0.103922,2.28379 -0.05286,1.27567 -1.082027,3.23615 c 2.846579,-1.25875 4.377283,-1.88397 4.377283,-1.88397 l 0.631127,-0.86598 -0.224229,-3.07301 -1.049469,-1.10762 -0.764707,0.0413 z m 0.617659,1.3831 1.761531,-0.0784 0.268234,0.35963 0.09536,1.76348 -0.211335,0.23246 -2.240024,1.34546 0.25371,-2.66651 z"
           id="path1150"
           inkscape:connector-curvature="0" />
        <path
           style="opacity:1;vector-effect:none;fill:#000000;fill-opacity:1;fill-rule:nonzero;stroke:#000000;stroke-width:0.33281565;stroke-linecap:butt;stroke-linejoin:round;stroke-miterlimit:4;stroke-dasharray:none;stroke-dashoffset:0;stroke-opacity:1;paint-order:normal"
           id="path1152"
           d="m 61.678617,172.87984 c -0.134576,-0.0152 -0.277063,-0.0541 -0.413133,-0.0314 -0.0309,0.005 -0.06029,0.017 -0.09044,0.0255 -0.03177,0.0122 -0.06473,0.0217 -0.0953,0.0367 -0.03195,0.0157 -0.122652,0.0722 -0.09157,0.0549 0.208679,-0.11633 0.413648,-0.23939 0.624399,-0.35192 0.03657,-0.0195 -0.06786,0.0477 -0.101081,0.0725 -0.108917,0.0813 -0.102948,0.0797 -0.205543,0.1695 -0.180708,0.17019 -0.344529,0.35832 -0.481239,0.56551 -0.115341,0.18016 -0.222895,0.36418 -0.292109,0.56713 -0.06949,0.20707 -0.01838,0.35557 0.07916,0.54048 0.107891,0.1581 0.235873,0.30253 0.372848,0.43598 0.163107,0.15469 0.335208,0.29892 0.513724,0.43548 0.171754,0.13694 0.325971,0.29212 0.478116,0.44994 0.131855,0.13692 0.269854,0.26712 0.38481,0.41892 0.09018,0.15857 0.139071,0.33416 0.220521,0.49729 0.06365,0.15207 0.155455,0.29577 0.173361,0.46226 -0.04101,0.34433 -0.53993,0.39819 -0.79958,0.54947 -0.0122,0.007 -0.05009,0.0261 -0.03785,0.019 0.737335,-0.42508 0.905651,-0.54106 0.632979,-0.35648 -0.143258,0.10746 -0.264594,0.24063 -0.38331,0.37384 -0.101896,0.1221 -0.193207,0.25253 -0.287897,0.38018 -0.05248,0.0792 -0.108552,0.15361 -0.178206,0.2182 0,0 -0.797,0.31655 -0.797,0.31655 v 0 c 0.08356,-0.0487 0.146139,-0.11292 0.193795,-0.19825 0.09738,-0.12699 0.186876,-0.25963 0.284753,-0.38629 0.119098,-0.13435 0.239301,-0.26789 0.37263,-0.38825 0.284304,-0.2331 0.04463,-0.0412 0.835529,-0.49819 0.01227,-0.007 0.05018,-0.0263 0.03802,-0.019 -0.232104,0.13957 -0.466808,0.27481 -0.697995,0.41589 -0.01949,0.0119 0.08723,-0.027 0.05797,-0.0365 0.02329,-0.15359 -0.09602,-0.29372 -0.144805,-0.43208 -0.08061,-0.15791 -0.131113,-0.3274 -0.213712,-0.48374 -0.111829,-0.14924 -0.249909,-0.27532 -0.376063,-0.4122 -0.14901,-0.15469 -0.29945,-0.30805 -0.468353,-0.44146 -0.180292,-0.14053 -0.356337,-0.28629 -0.525332,-0.44026 -0.141432,-0.14086 -0.270808,-0.29473 -0.382215,-0.46046 -0.106305,-0.19931 -0.178261,-0.37112 -0.11288,-0.59939 0.06524,-0.21113 0.167553,-0.40393 0.288443,-0.58881 0.131976,-0.21629 0.296398,-0.4097 0.476535,-0.58776 0.373926,-0.35524 0.828151,-0.65437 1.319919,-0.81058 0.178645,-0.024 0.355995,-0.001 0.53395,0.0225 0,0 -0.705869,0.49524 -0.705869,0.49524 z"
           inkscape:connector-curvature="0" />
        <path
           style="opacity:1;vector-effect:none;fill:#000000;fill-opacity:1;fill-rule:nonzero;stroke:#000000;stroke-width:0.33281565;stroke-linecap:butt;stroke-linejoin:round;stroke-miterlimit:4;stroke-dasharray:none;stroke-dashoffset:0;stroke-opacity:1;paint-order:normal"
           id="path1154"
           d="m 57.571012,173.99716 c -0.18268,0.0149 -0.360909,0.0553 -0.5351,0.11107 -0.25689,0.14292 -0.744664,0.37209 0.434041,-0.25007 0.03598,-0.019 -0.06577,0.048 -0.09695,0.0741 -0.07436,0.0623 -0.110256,0.1029 -0.177329,0.17216 -0.16168,0.16897 -0.312803,0.34755 -0.454263,0.53369 -0.113632,0.13785 -0.176835,0.29011 -0.18178,0.46819 0.04204,0.29128 0.195175,0.55223 0.339286,0.80408 0.147407,0.24804 0.344374,0.45542 0.539624,0.66497 0.183084,0.17247 0.360761,0.34935 0.504052,0.55685 0.125357,0.19505 0.104967,0.39932 0.03273,0.60818 -0.06682,0.14827 -0.146887,0.29098 -0.260018,0.40866 -0.0055,0.005 -0.08034,0.0714 -0.08854,0.0763 -0.258313,0.15405 -0.526085,0.29242 -0.779557,0.45431 -0.04384,0.028 2.042397,-1.17995 -0.08263,0.0497 0,0 0.669704,-0.54124 0.669704,-0.54124 v 0 c -2.329384,1.35178 1.706798,-0.99037 -0.605559,0.35392 -0.03393,0.0197 0.141839,-0.086 0.09395,-0.071 0.130985,-0.095 0.205225,-0.23502 0.282713,-0.37413 0.08373,-0.18733 0.121338,-0.3512 0.0096,-0.53727 -0.138722,-0.20493 -0.314617,-0.37745 -0.49071,-0.55019 -0.199204,-0.21442 -0.398556,-0.42817 -0.545729,-0.68376 -0.150154,-0.26431 -0.303844,-0.53466 -0.372127,-0.83355 -0.01342,-0.20371 0.02928,-0.35634 0.15641,-0.5183 0.140123,-0.19151 0.297746,-0.36984 0.457024,-0.54551 0.04601,-0.05 0.123537,-0.13595 0.172829,-0.18236 0.313869,-0.29545 0.717664,-0.48673 1.112052,-0.65424 0.184216,-0.0518 0.372461,-0.0906 0.563959,-0.10156 0,0 -0.697719,0.50692 -0.697719,0.50692 z"
           inkscape:connector-curvature="0" />
        <path
           style="opacity:1;vector-effect:none;fill:#000000;fill-opacity:1;fill-rule:nonzero;stroke:#000000;stroke-width:0.33281565;stroke-linecap:butt;stroke-linejoin:round;stroke-miterlimit:4;stroke-dasharray:none;stroke-dashoffset:0;stroke-opacity:1;paint-order:normal"
           id="path1156"
           d="m 66.667956,173.78163 c -0.170216,-0.008 -0.341466,0.0122 -0.508719,0.0433 -0.189505,0.0493 -0.379195,0.0838 -0.550513,0.18186 1.180635,-0.66662 0.682092,-0.42372 0.458817,-0.22766 -0.0739,0.0649 -0.132811,0.13933 -0.190486,0.21829 -0.100491,0.14595 -0.170279,0.30707 -0.212961,0.47835 -0.0327,0.1678 -0.03328,0.33949 -0.03406,0.5098 0.0019,0.17861 -0.01116,0.35756 0.02108,0.53398 0.04173,0.15087 0.06721,0.30655 0.120245,0.45392 0.07304,0.17566 0.179284,0.33377 0.255364,0.50794 0.06234,0.14856 0.06246,0.31036 0.07716,0.46801 0.03272,0.18277 0.112589,0.35277 0.179926,0.52469 0.08019,0.18921 -9.55e-4,0.34239 -0.12089,0.49055 -0.30458,0.34296 -0.721484,0.5087 -1.12107,0.73391 -0.05924,0.0194 -0.12095,0.0251 -0.182566,0.0308 0,0 0.687057,-0.51396 0.687057,-0.51396 v 0 c 0.05703,-0.0109 0.113626,-0.0225 0.165942,-0.0492 -0.224747,0.13093 -0.450092,0.26085 -0.67424,0.3928 -0.0207,0.0122 0.04329,-0.021 0.06383,-0.0335 0.103316,-0.0627 0.196931,-0.14702 0.280879,-0.23267 0.123023,-0.12342 0.214744,-0.22546 0.160253,-0.40638 -0.06761,-0.17938 -0.152923,-0.35399 -0.193255,-0.54217 -0.01934,-0.14923 -0.01288,-0.30328 -0.06616,-0.44654 -0.07033,-0.17803 -0.175613,-0.33748 -0.255604,-0.51105 -0.05935,-0.15062 -0.08803,-0.30995 -0.126679,-0.46686 -0.03696,-0.18128 -0.02874,-0.36461 -0.02878,-0.54887 0.0012,-0.17508 -0.0019,-0.35147 0.02465,-0.525 0.03453,-0.18177 0.105849,-0.35108 0.201624,-0.50946 0.294367,-0.45207 0.666695,-0.56449 1.171577,-0.85946 0.18054,-0.0801 0.374227,-0.11911 0.566516,-0.1615 0.175289,-0.0251 0.351524,-0.0419 0.528799,-0.0408 0,0 -0.697718,0.50693 -0.697718,0.50693 z"
           inkscape:connector-curvature="0" />
      </g>
    </clipPath>
    <linearGradient
       inkscape:collect="always"
       xlink:href="#linearGradient1148"
       id="linearGradient1150"
       x1="15.566963"
       y1="156.56877"
       x2="41.972057"
       y2="156.56877"
       gradientUnits="userSpaceOnUse" />
    <linearGradient
       inkscape:collect="always"
       xlink:href="#linearGradient1154"
       id="linearGradient1156"
       x1="22.381989"
       y1="172.28664"
       x2="37.03289"
       y2="172.28664"
       gradientUnits="userSpaceOnUse" />
    <linearGradient
       inkscape:collect="always"
       xlink:href="#linearGradient1160"
       id="linearGradient1164"
       gradientUnits="userSpaceOnUse"
       x1="45.719803"
       y1="181.29095"
       x2="92.328621"
       y2="181.29095" />
    <linearGradient
       inkscape:collect="always"
       xlink:href="#linearGradient1160"
       id="linearGradient1166"
       gradientUnits="userSpaceOnUse"
       x1="45.719803"
       y1="181.29095"
       x2="92.328621"
       y2="181.29095" />
    <linearGradient
       inkscape:collect="always"
       xlink:href="#linearGradient1160"
       id="linearGradient1168"
       gradientUnits="userSpaceOnUse"
       x1="45.719803"
       y1="181.29095"
       x2="92.328621"
       y2="181.29095" />
  </defs>
  <sodipodi:namedview
     id="base"
     pagecolor="#ffffff"
     bordercolor="#666666"
     borderopacity="1.0"
     inkscape:pageopacity="0.0"
     inkscape:pageshadow="2"
     inkscape:zoom="3.959798"
     inkscape:cx="124.76575"
     inkscape:cy="68.750892"
     inkscape:document-units="mm"
     inkscape:current-layer="layer1"
     showgrid="false"
     inkscape:window-width="1920"
     inkscape:window-height="1057"
     inkscape:window-x="-8"
     inkscape:window-y="-8"
     inkscape:window-maximized="1"
     units="px"
     fit-margin-top="0"
     fit-margin-left="0"
     fit-margin-right="0"
     fit-margin-bottom="0" />
  <metadata
     id="metadata5">
    <rdf:RDF>
      <cc:Work
         rdf:about="">
        <dc:format>image/svg+xml</dc:format>
        <dc:type
           rdf:resource="http://purl.org/dc/dcmitype/StillImage" />
        <dc:title />
      </cc:Work>
    </rdf:RDF>
  </metadata>
  <g
     inkscape:label="Layer 1"
     inkscape:groupmode="layer"
     id="layer1"
     transform="translate(-15.566963,-154.71671)">
    <g
       inkscape:label="Clip"
       id="g945"
       transform="matrix(0.30816265,0,0,0.30816265,9.4036282,122.59374)"
       style="fill:url(#linearGradient1168);fill-opacity:1">
      <path
         style="fill:url(#linearGradient1164);fill-opacity:1;fill-rule:evenodd;stroke:#000000;stroke-width:1.44300008;stroke-miterlimit:4;stroke-dasharray:none;stroke-opacity:1"
         d="m 91.60709,178.41294 -45.165786,2.9e-4 v 2.54662 a 5.476865,3.8141683 0 0 0 0.115949,0.41847 5.476865,3.8141683 0 0 0 4.569424,2.79066 h 1.387934 a 5.476865,3.8141683 0 0 0 0.243759,-0.0199 3.273529,2.279733 0 0 0 -0.03291,0.0199 h 32.621964 a 3.273529,2.279733 0 0 0 -0.03288,-0.0199 5.476865,3.8141683 0 0 0 0.243375,0.0199 h 1.387929 a 5.476865,3.8141683 0 0 0 4.569431,-2.79066 5.476865,3.8141683 0 0 0 0.09184,-0.30353 z"
         id="rect25"
         inkscape:connector-curvature="0" />
      <rect
         style="fill:url(#linearGradient1166);fill-opacity:1;fill-rule:evenodd;stroke:none;stroke-width:1.44300008;stroke-miterlimit:4;stroke-dasharray:none;stroke-opacity:1"
         id="rect886"
         width="36.292591"
         height="0.37341157"
         x="50.886318"
         y="181.93355" />
    </g>
    <path
       style="fill:url(#linearGradient1156);fill-opacity:1;fill-rule:evenodd;stroke:#000000;stroke-width:0.46224397;stroke-miterlimit:4;stroke-dasharray:none;stroke-opacity:1"
       d="m 22.702666,167.40669 a 5.6441699,1.5704571 75.924255 0 0 0.449555,4.90742 5.6441699,1.5704571 75.924255 0 0 2.243957,4.81257 7.2072346,2.2316826 75.960047 0 1 -0.0016,0.0399 h 8.625321 a 2.2316826,7.2072346 14.039953 0 1 -0.0012,-0.0399 1.5704571,5.6441702 14.075745 0 0 2.243957,-4.81257 1.5704571,5.6441702 14.075745 0 0 0.449557,-4.90742 z"
       id="path939"
       inkscape:connector-curvature="0" />
    <path
       style="fill:#4d5159;fill-opacity:1;stroke:#000000;stroke-width:0.09697033px;stroke-linecap:butt;stroke-linejoin:miter;stroke-opacity:1"
       d="m 22.888887,167.63233 -0.04118,1.80574 h 13.751086 l -0.06552,-1.80937 z"
       id="path1105"
       inkscape:connector-curvature="0" />
    <g
       id="g4830"
       clip-path="url(#clipPath4832)"
       transform="matrix(0.30816265,0,0,0.30816265,0.82524017,129.56772)">
      <g
         inkscape:label="Clip"
         id="g4828">
        <path
           transform="scale(0.26458333)"
           inkscape:connector-curvature="0"
           id="path4822"
           d="m 361.52276,570.54057 c -1.8298,-1.8298 -0.8122,-4.14485 4.5,-10.23752 2.94643,-3.37933 5.35714,-6.31812 5.35714,-6.53065 0,-1.20921 -7.4864,-9.55546 -8.40838,-9.37412 -0.59982,0.11797 -1.48989,1.65365 -1.98686,3.428 -0.49514,1.76786 -1.41908,5.0548 -2.0532,7.30431 -0.63412,2.24952 -1.71502,4.39085 -2.40201,4.75851 -1.4798,0.79197 -19.72776,-2.25213 -21.29436,-3.55229 -1.33192,-1.1054 -1.26673,-3.85409 0.1244,-5.24522 1.35777,-1.35777 0.5225,-1.35979 8.62231,0.0209 3.68908,0.62883 7.15221,0.97263 7.69586,0.76402 2.19874,-0.84374 2.00515,-5.63019 -0.65494,-16.19321 l -2.58253,-10.25507 -9.95872,-10.26957 c -5.47729,-5.64826 -9.95871,-10.83013 -9.95871,-11.51525 0,-1.5393 1.3494,-2.95996 2.8115,-2.95996 0.60346,0 5.13535,4.02919 10.07086,8.95374 l 8.97366,8.95374 4.60014,-1.07314 c 2.58242,-0.60244 5.00835,-1.6317 5.53082,-2.34659 13.88326,-18.9963 14.72946,-19.89508 16.97587,-18.03073 1.93387,1.60498 1.04938,3.57885 -5.74856,12.8287 -3.73215,5.07826 -6.78572,9.69867 -6.78572,10.26756 0,0.95055 3.15025,14.95072 3.98585,17.71369 0.19886,0.65754 2.75714,4.19326 5.68508,7.85714 2.92794,3.66388 5.32128,7.30446 5.31854,8.09018 -0.003,0.78571 -3.11875,5.04464 -6.92446,9.46428 -5.51631,6.40619 -7.29635,8.03572 -8.77796,8.03572 -1.02216,0 -2.24419,-0.38572 -2.71562,-0.85714 z"
           style="opacity:1;vector-effect:none;fill:#e0e2e5;fill-opacity:1;fill-rule:nonzero;stroke:none;stroke-width:1.53880763;stroke-linecap:butt;stroke-linejoin:round;stroke-miterlimit:4;stroke-dasharray:none;stroke-dashoffset:0;stroke-opacity:1;paint-order:normal" />
        <path
           transform="scale(0.26458333)"
           inkscape:connector-curvature="0"
           id="path4824"
           d="m 348.89562,513.36199 c -1.1035,-0.95881 -2.01954,-2.67432 -2.27077,-4.25257 -0.36385,-2.28573 -0.12523,-2.94131 1.75488,-4.82143 4.22989,-4.22989 10.85732,-1.90755 10.85732,3.80455 0,3.45994 -0.58313,4.62923 -2.90823,5.83159 -2.86414,1.4811 -5.29305,1.29741 -7.4332,-0.56214 z"
           style="opacity:1;vector-effect:none;fill:#e0e2e5;fill-opacity:1;fill-rule:nonzero;stroke:none;stroke-width:1.53880763;stroke-linecap:butt;stroke-linejoin:round;stroke-miterlimit:4;stroke-dasharray:none;stroke-dashoffset:0;stroke-opacity:1;paint-order:normal" />
      </g>
    </g>
    <path
       style="fill:#4d5159;fill-opacity:1;fill-rule:evenodd;stroke:#000000;stroke-width:0.33281565;stroke-miterlimit:4;stroke-dasharray:none;stroke-opacity:1"
       d="m 37.072362,167.34058 -0.103922,2.28379 -0.05286,1.27567 -1.082027,3.23615 c 2.846579,-1.25875 4.377283,-1.88397 4.377283,-1.88397 l 0.631127,-0.86598 -0.224229,-3.07301 -1.049469,-1.10762 -0.764707,0.0413 z m 0.617659,1.3831 1.761531,-0.0784 0.268234,0.35963 0.09536,1.76348 -0.211335,0.23246 -2.240024,1.34546 0.25371,-2.66651 z"
       id="rect4842"
       inkscape:connector-curvature="0" />
    <path
       style="opacity:1;vector-effect:none;fill:#000000;fill-opacity:1;fill-rule:nonzero;stroke:#000000;stroke-width:0.33281565;stroke-linecap:butt;stroke-linejoin:round;stroke-miterlimit:4;stroke-dasharray:none;stroke-dashoffset:0;stroke-opacity:1;paint-order:normal"
       id="path4852"
       d="m 31.289331,160.37108 c -0.134576,-0.0152 -0.277063,-0.0541 -0.413133,-0.0314 -0.0309,0.005 -0.06029,0.017 -0.09044,0.0255 -0.03177,0.0122 -0.06473,0.0217 -0.0953,0.0367 -0.03195,0.0157 -0.122652,0.0722 -0.09157,0.0549 0.208679,-0.11633 0.413648,-0.23939 0.624399,-0.35192 0.03657,-0.0195 -0.06786,0.0477 -0.101081,0.0725 -0.108917,0.0813 -0.102948,0.0797 -0.205543,0.1695 -0.180708,0.17019 -0.344529,0.35832 -0.481239,0.56551 -0.115341,0.18016 -0.222895,0.36418 -0.292109,0.56713 -0.06949,0.20707 -0.01838,0.35557 0.07916,0.54048 0.107891,0.1581 0.235873,0.30253 0.372848,0.43598 0.163107,0.15469 0.335208,0.29892 0.513724,0.43548 0.171754,0.13694 0.325971,0.29212 0.478116,0.44994 0.131855,0.13692 0.269854,0.26712 0.38481,0.41892 0.09018,0.15857 0.139071,0.33416 0.220521,0.49729 0.06365,0.15207 0.155455,0.29577 0.173361,0.46226 -0.04101,0.34433 -0.53993,0.39819 -0.79958,0.54947 -0.0122,0.007 -0.05009,0.0261 -0.03785,0.019 0.737335,-0.42508 0.905651,-0.54106 0.632979,-0.35648 -0.143258,0.10746 -0.264594,0.24063 -0.38331,0.37384 -0.101896,0.1221 -0.193207,0.25253 -0.287897,0.38018 -0.05248,0.0792 -0.108552,0.15361 -0.178206,0.2182 0,0 -0.797,0.31655 -0.797,0.31655 v 0 c 0.08356,-0.0487 0.146139,-0.11292 0.193795,-0.19825 0.09738,-0.12699 0.186876,-0.25963 0.284753,-0.38629 0.119098,-0.13435 0.239301,-0.26789 0.37263,-0.38825 0.284304,-0.2331 0.04463,-0.0412 0.835529,-0.49819 0.01227,-0.007 0.05018,-0.0263 0.03802,-0.019 -0.232104,0.13957 -0.466808,0.27481 -0.697995,0.41589 -0.01949,0.0119 0.08723,-0.027 0.05797,-0.0365 0.02329,-0.15359 -0.09602,-0.29372 -0.144805,-0.43208 -0.08061,-0.15791 -0.131113,-0.3274 -0.213712,-0.48374 -0.111829,-0.14924 -0.249909,-0.27532 -0.376063,-0.4122 -0.14901,-0.15469 -0.29945,-0.30805 -0.468353,-0.44146 -0.180292,-0.14053 -0.356337,-0.28629 -0.525332,-0.44026 -0.141432,-0.14086 -0.270808,-0.29473 -0.382215,-0.46046 -0.106305,-0.19931 -0.178261,-0.37112 -0.11288,-0.59939 0.06524,-0.21113 0.167553,-0.40393 0.288443,-0.58881 0.131976,-0.21629 0.296398,-0.4097 0.476535,-0.58776 0.373926,-0.35524 0.828151,-0.65437 1.319919,-0.81058 0.178645,-0.024 0.355995,-0.001 0.53395,0.0225 0,0 -0.705869,0.49524 -0.705869,0.49524 z"
       inkscape:connector-curvature="0" />
    <path
       style="opacity:1;vector-effect:none;fill:#000000;fill-opacity:1;fill-rule:nonzero;stroke:#000000;stroke-width:0.33281565;stroke-linecap:butt;stroke-linejoin:round;stroke-miterlimit:4;stroke-dasharray:none;stroke-dashoffset:0;stroke-opacity:1;paint-order:normal"
       id="path4854"
       d="m 26.652559,161.4884 c -0.18268,0.0149 -0.360909,0.0553 -0.5351,0.11107 -0.25689,0.14292 -0.744664,0.37209 0.434041,-0.25007 0.03598,-0.019 -0.06577,0.048 -0.09695,0.0741 -0.07436,0.0623 -0.110256,0.1029 -0.177329,0.17216 -0.16168,0.16897 -0.312803,0.34755 -0.454263,0.53369 -0.113632,0.13785 -0.176835,0.29011 -0.18178,0.46819 0.04204,0.29128 0.195175,0.55223 0.339286,0.80408 0.147407,0.24804 0.344374,0.45542 0.539624,0.66497 0.183084,0.17247 0.360761,0.34935 0.504052,0.55685 0.125357,0.19505 0.104967,0.39932 0.03273,0.60818 -0.06682,0.14827 -0.146887,0.29098 -0.260018,0.40866 -0.0055,0.005 -0.08034,0.0714 -0.08854,0.0763 -0.258313,0.15405 -0.526085,0.29242 -0.779557,0.45431 -0.04384,0.028 2.042397,-1.17995 -0.08263,0.0497 0,0 0.669704,-0.54124 0.669704,-0.54124 v 0 c -2.329384,1.35178 1.706798,-0.99037 -0.605559,0.35392 -0.03393,0.0197 0.141839,-0.086 0.09395,-0.071 0.130985,-0.095 0.205225,-0.23502 0.282713,-0.37413 0.08373,-0.18733 0.121338,-0.3512 0.0096,-0.53727 -0.138722,-0.20493 -0.314617,-0.37745 -0.49071,-0.55019 -0.199204,-0.21442 -0.398556,-0.42817 -0.545729,-0.68376 -0.150154,-0.26431 -0.303844,-0.53466 -0.372127,-0.83355 -0.01342,-0.20371 0.02928,-0.35634 0.15641,-0.5183 0.140123,-0.19151 0.297746,-0.36984 0.457024,-0.54551 0.04601,-0.05 0.123537,-0.13595 0.172829,-0.18236 0.313869,-0.29545 0.717664,-0.48673 1.112052,-0.65424 0.184216,-0.0518 0.372461,-0.0906 0.563959,-0.10156 0,0 -0.697719,0.50692 -0.697719,0.50692 z"
       inkscape:connector-curvature="0" />
    <path
       style="opacity:1;vector-effect:none;fill:#000000;fill-opacity:1;fill-rule:nonzero;stroke:#000000;stroke-width:0.33281565;stroke-linecap:butt;stroke-linejoin:round;stroke-miterlimit:4;stroke-dasharray:none;stroke-dashoffset:0;stroke-opacity:1;paint-order:normal"
       id="path4856"
       d="m 35.749503,161.27287 c -0.170216,-0.008 -0.341466,0.0122 -0.508719,0.0433 -0.189505,0.0493 -0.379195,0.0838 -0.550513,0.18186 1.180635,-0.66662 0.682092,-0.42372 0.458817,-0.22766 -0.0739,0.0649 -0.132811,0.13933 -0.190486,0.21829 -0.100491,0.14595 -0.170279,0.30707 -0.212961,0.47835 -0.0327,0.1678 -0.03328,0.33949 -0.03406,0.5098 0.0019,0.17861 -0.01116,0.35756 0.02108,0.53398 0.04173,0.15087 0.06721,0.30655 0.120245,0.45392 0.07304,0.17566 0.179284,0.33377 0.255364,0.50794 0.06234,0.14856 0.06246,0.31036 0.07716,0.46801 0.03272,0.18277 0.112589,0.35277 0.179926,0.52469 0.08019,0.18921 -9.55e-4,0.34239 -0.12089,0.49055 -0.30458,0.34296 -0.721484,0.5087 -1.12107,0.73391 -0.05924,0.0194 -0.12095,0.0251 -0.182566,0.0308 0,0 0.687057,-0.51396 0.687057,-0.51396 v 0 c 0.05703,-0.0109 0.113626,-0.0225 0.165942,-0.0492 -0.224747,0.13093 -0.450092,0.26085 -0.67424,0.3928 -0.0207,0.0122 0.04329,-0.021 0.06383,-0.0335 0.103316,-0.0627 0.196931,-0.14702 0.280879,-0.23267 0.123023,-0.12342 0.214744,-0.22546 0.160253,-0.40638 -0.06761,-0.17938 -0.152923,-0.35399 -0.193255,-0.54217 -0.01934,-0.14923 -0.01288,-0.30328 -0.06616,-0.44654 -0.07033,-0.17803 -0.175613,-0.33748 -0.255604,-0.51105 -0.05935,-0.15062 -0.08803,-0.30995 -0.126679,-0.46686 -0.03696,-0.18128 -0.02874,-0.36461 -0.02878,-0.54887 0.0012,-0.17508 -0.0019,-0.35147 0.02465,-0.525 0.03453,-0.18177 0.105849,-0.35108 0.201624,-0.50946 0.294367,-0.45207 0.666695,-0.56449 1.171577,-0.85946 0.18054,-0.0801 0.374227,-0.11911 0.566516,-0.1615 0.175289,-0.0251 0.351524,-0.0419 0.528799,-0.0408 0,0 -0.697718,0.50693 -0.697718,0.50693 z"
       inkscape:connector-curvature="0" />
    <flowRoot
       xml:space="preserve"
       id="flowRoot1063"
       style="font-style:normal;font-weight:normal;font-size:40px;line-height:1.25;font-family:sans-serif;letter-spacing:0px;word-spacing:0px;fill:#000000;fill-opacity:1;stroke:none"
       transform="scale(0.26458333)"><flowRegion
         id="flowRegion1065"><rect
           id="rect1067"
           width="79.802048"
           height="42.426407"
           x="290.92392"
           y="701.28607" /></flowRegion><flowPara
         id="flowPara1069">Smar</flowPara></flowRoot>    <g
       aria-label="SmarTea"
       style="font-style:normal;font-variant:normal;font-weight:normal;font-stretch:normal;font-size:10.58333302px;line-height:1.25;font-family:Anton;-inkscape-font-specification:'Anton, Normal';font-variant-ligatures:normal;font-variant-caps:normal;font-variant-numeric:normal;font-feature-settings:normal;text-align:start;letter-spacing:0px;word-spacing:0px;writing-mode:lr-tb;text-anchor:start;fill:#618c03;fill-opacity:1;stroke:none;stroke-width:0.26458332"
       id="text1073">
      <path
         d="m 44.874563,179.34773 q -1.23825,0 -1.788583,-0.61384 -0.550334,-0.61383 -0.550334,-1.97908 v -0.889 h 1.788584 v 1.13242 q 0,0.67733 0.433916,0.67733 0.243417,0 0.338667,-0.13758 0.09525,-0.14817 0.09525,-0.48684 0,-0.4445 -0.105833,-0.73025 -0.105834,-0.29633 -0.275167,-0.48683 -0.15875,-0.20108 -0.582083,-0.61383 l -0.783167,-0.78317 q -0.910167,-0.889 -0.910167,-1.9685 0,-1.16416 0.529167,-1.76741 0.53975,-0.61384 1.566333,-0.61384 1.227667,0 1.767417,0.65617 0.53975,0.64558 0.53975,2.032 H 45.08623 l -0.01058,-0.62442 q 0,-0.17991 -0.105833,-0.28575 -0.09525,-0.10583 -0.275167,-0.10583 -0.211666,0 -0.3175,0.11642 -0.105833,0.11641 -0.105833,0.3175 0,0.4445 0.508,0.92075 l 1.058333,1.016 q 0.370417,0.35983 0.613834,0.68791 0.243416,0.3175 0.391583,0.762 0.148167,0.43392 0.148167,1.03717 0,1.34408 -0.497417,2.04258 -0.486833,0.68792 -1.61925,0.68792 z"
         style="font-style:normal;font-variant:normal;font-weight:normal;font-stretch:normal;font-size:10.58333302px;font-family:Anton;-inkscape-font-specification:'Anton, Normal';font-variant-ligatures:normal;font-variant-caps:normal;font-variant-numeric:normal;font-feature-settings:normal;text-align:start;writing-mode:lr-tb;text-anchor:start;fill:#618c03;fill-opacity:1;stroke-width:0.26458332"
         id="path122" />
      <path
         d="m 47.562068,171.51606 h 1.80975 v 0.89959 q 0.127,-0.49742 0.433917,-0.74084 0.306916,-0.24341 0.867833,-0.24341 0.455083,0 0.783167,0.21166 0.338666,0.20109 0.47625,0.56092 0.232833,-0.40217 0.518583,-0.58208 0.28575,-0.1905 0.79375,-0.1905 0.910166,0 1.259416,0.56091 0.359834,0.55034 0.359834,1.60867 l -0.02117,5.66208 h -1.862666 v -5.69383 q 0,-0.75142 -0.381,-0.75142 -0.264584,0 -0.381,0.26459 -0.116417,0.254 -0.116417,0.61383 v 5.56683 h -1.852083 v -5.69383 q 0,-0.32808 -0.07408,-0.52917 -0.0635,-0.20108 -0.28575,-0.20108 -0.28575,0 -0.402166,0.28575 -0.116417,0.27517 -0.116417,0.66675 v 5.47158 h -1.80975 z"
         style="font-style:normal;font-variant:normal;font-weight:normal;font-stretch:normal;font-size:10.58333302px;font-family:Anton;-inkscape-font-specification:'Anton, Normal';font-variant-ligatures:normal;font-variant-caps:normal;font-variant-numeric:normal;font-feature-settings:normal;text-align:start;writing-mode:lr-tb;text-anchor:start;fill:#618c03;fill-opacity:1;stroke-width:0.26458332"
         id="path124" />
      <path
         d="m 56.989833,179.34773 q -0.899583,0 -1.23825,-0.59267 -0.328083,-0.60325 -0.328083,-1.7145 0,-0.91017 0.232833,-1.397 0.243417,-0.48683 0.66675,-0.70908 0.423333,-0.23284 1.291167,-0.508 l 0.508,-0.16933 v -0.0212 -0.77258 q 0,-0.30692 -0.127,-0.46567 -0.116417,-0.16933 -0.28575,-0.16933 -0.148167,0 -0.264584,0.13758 -0.105833,0.13758 -0.105833,0.37042 v 0.46566 h -1.799167 v -0.254 q 0,-1.143 0.529167,-1.62983 0.53975,-0.48683 1.74625,-0.48683 0.963083,0 1.566333,0.508 0.60325,0.49741 0.60325,1.41816 v 5.9055 h -1.8415 v -0.92075 q -0.137583,0.47625 -0.4445,0.74083 -0.296333,0.26459 -0.709083,0.26459 z m 0.73025,-1.43934 q 0.211667,0 0.296333,-0.16933 0.09525,-0.17992 0.09525,-0.43392 v -2.159 q -0.41275,0.15875 -0.613833,0.40217 -0.1905,0.24342 -0.1905,0.67733 v 0.99484 q 0,0.68791 0.41275,0.68791 z"
         style="font-style:normal;font-variant:normal;font-weight:normal;font-stretch:normal;font-size:10.58333302px;font-family:Anton;-inkscape-font-specification:'Anton, Normal';font-variant-ligatures:normal;font-variant-caps:normal;font-variant-numeric:normal;font-feature-settings:normal;text-align:start;writing-mode:lr-tb;text-anchor:start;fill:#618c03;fill-opacity:1;stroke-width:0.26458332"
         id="path126" />
      <path
         d="m 60.687881,171.51606 h 1.852084 v 0.85725 q 0.137583,-0.45508 0.47625,-0.6985 0.34925,-0.254 0.85725,-0.254 v 1.54517 q -0.391584,0 -0.867834,0.11642 -0.465666,0.10583 -0.465666,0.254 v 5.92666 h -1.852084 z"
         style="font-style:normal;font-variant:normal;font-weight:normal;font-stretch:normal;font-size:10.58333302px;font-family:Anton;-inkscape-font-specification:'Anton, Normal';font-variant-ligatures:normal;font-variant-caps:normal;font-variant-numeric:normal;font-feature-settings:normal;text-align:start;writing-mode:lr-tb;text-anchor:start;fill:#618c03;fill-opacity:1;stroke-width:0.26458332"
         id="path128" />
      <path
         d="m 65.140818,179.26306 v -7.34483 h -1.0795 v -1.74625 h 3.979333 v 1.74625 h -1.0795 v 7.34483 z"
         style="font-style:normal;font-variant:normal;font-weight:normal;font-stretch:normal;font-size:10.58333302px;font-family:Anton;-inkscape-font-specification:'Anton, Normal';font-variant-ligatures:normal;font-variant-caps:normal;font-variant-numeric:normal;font-feature-settings:normal;text-align:start;writing-mode:lr-tb;text-anchor:start;fill:#618c03;fill-opacity:1;stroke-width:0.26458332"
         id="path130" />
      <path
         d="m 70.691611,179.34773 q -1.195916,0 -1.7145,-0.65617 -0.518583,-0.65617 -0.518583,-1.95792 v -3.11149 q 0,-1.06892 0.613833,-1.62984 0.613834,-0.56091 1.7145,-0.56091 2.233084,0 2.233084,2.19075 v 0.56091 q 0,0.84667 -0.02117,1.37583 h -2.688167 v 1.50284 q 0,0.40216 0.08467,0.635 0.08467,0.22225 0.359833,0.22225 0.211667,0 0.296334,-0.127 0.09525,-0.127 0.105833,-0.28575 0.02117,-0.16934 0.02117,-0.48684 v -0.75141 h 1.8415 v 0.4445 q 0,1.35466 -0.529167,2.00025 -0.518583,0.635 -1.799167,0.635 z m 0.486834,-4.70959 v -0.99483 q 0,-0.83608 -0.41275,-0.83608 -0.465667,0 -0.465667,0.83608 v 0.99483 z"
         style="font-style:normal;font-variant:normal;font-weight:normal;font-stretch:normal;font-size:10.58333302px;font-family:Anton;-inkscape-font-specification:'Anton, Normal';font-variant-ligatures:normal;font-variant-caps:normal;font-variant-numeric:normal;font-feature-settings:normal;text-align:start;writing-mode:lr-tb;text-anchor:start;fill:#618c03;fill-opacity:1;stroke-width:0.26458332"
         id="path132" />
      <path
         d="m 75.097254,179.34773 q -0.899583,0 -1.23825,-0.59267 -0.328083,-0.60325 -0.328083,-1.7145 0,-0.91017 0.232833,-1.397 0.243417,-0.48683 0.66675,-0.70908 0.423333,-0.23284 1.291167,-0.508 l 0.508,-0.16933 v -0.0212 -0.77258 q 0,-0.30692 -0.127,-0.46567 -0.116417,-0.16933 -0.28575,-0.16933 -0.148167,0 -0.264584,0.13758 -0.105833,0.13758 -0.105833,0.37042 v 0.46566 h -1.799167 v -0.254 q 0,-1.143 0.529167,-1.62983 0.53975,-0.48683 1.74625,-0.48683 0.963083,0 1.566333,0.508 0.60325,0.49741 0.60325,1.41816 v 5.9055 h -1.8415 v -0.92075 q -0.137583,0.47625 -0.4445,0.74083 -0.296333,0.26459 -0.709083,0.26459 z m 0.73025,-1.43934 q 0.211667,0 0.296333,-0.16933 0.09525,-0.17992 0.09525,-0.43392 v -2.159 q -0.41275,0.15875 -0.613833,0.40217 -0.1905,0.24342 -0.1905,0.67733 v 0.99484 q 0,0.68791 0.41275,0.68791 z"
         style="font-style:normal;font-variant:normal;font-weight:normal;font-stretch:normal;font-size:10.58333302px;font-family:Anton;-inkscape-font-specification:'Anton, Normal';font-variant-ligatures:normal;font-variant-caps:normal;font-variant-numeric:normal;font-feature-settings:normal;text-align:start;writing-mode:lr-tb;text-anchor:start;fill:#618c03;fill-opacity:1;stroke-width:0.26458332"
         id="path134" />
    </g>
    <rect
       style="fill:#618c03;fill-opacity:1;fill-rule:evenodd;stroke-width:0.45622081"
       id="rect1196"
       width="63.431793"
       height="3.4687824"
       x="15.566963"
       y="180.92282" />
    <rect
       style="opacity:1;fill:url(#linearGradient1150);fill-opacity:1;fill-rule:evenodd;stroke-width:0.26886106"
       id="rect1200"
       width="26.405096"
       height="3.704123"
       x="15.566963"
       y="154.71671" />
    <rect
       style="fill:#618c03;fill-opacity:1;fill-rule:evenodd;stroke-width:0.37795043"
       id="rect1198"
       width="3.7326751"
       height="26.944654"
       x="15.566963"
       y="154.71671" />
  </g>
</svg>
